<?xml version="1.0" encoding="iso-8859-1"?>
<!-- Generator: Adobe Illustrator 19.0.0, SVG Export Plug-In . SVG Version: 6.00 Build 0)  -->
<svg version="1.1" id="Capa_1" xmlns="http://www.w3.org/2000/svg" xmlns:xlink="http://www.w3.org/1999/xlink" x="0px" y="0px"
	 viewBox="0 0 489.97 489.97" style="enable-background:new 0 0 489.97 489.97;" xml:space="preserve">
<g id="XMLID_88_">
	<path id="XMLID_89_" d="M420.408,118.296c-44.858-44.857-104.5-69.562-167.938-69.562S129.39,73.439,84.532,118.296
		c-44.521,44.521-69.19,103.61-69.558,166.516c-1.211,6.415-6.621,34.945-13.328,68.481c-4.606,23.031,0.562,45.767,14.18,62.378
		c13.514,16.485,33.59,25.563,56.529,25.563s43.015-9.078,56.529-25.563c13.618-16.611,18.786-39.347,14.18-62.378
		c-4.11-20.548-7.73-39.205-10.198-52.059h87.104v105h15c41.355,0,75-33.645,75-75v-30h30v5c0,41.355,33.645,75,75,75
		s75-33.645,75-75v-20C489.97,222.796,465.266,163.155,420.408,118.296z M459.97,306.235c0,24.813-20.187,45-45,45s-45-20.187-45-45
		v-35h-90v60c0,19.557-12.539,36.239-30,42.43v-87.43c0-24.813,20.187-45,45-45v-30c-36.219,0-66.522,25.808-73.491,60H69.739v30
		h32.581c2.43,12.714,6.551,34.067,11.326,57.941c2.878,14.393,0.05,27.701-7.963,37.476c-7.709,9.404-19.546,14.583-33.329,14.583
		s-25.619-5.179-33.329-14.583c-8.013-9.774-10.841-23.083-7.963-37.476c7.629-38.145,13.59-69.857,13.649-70.173l0.258-1.372
		v-1.396c0-114.416,93.084-207.5,207.5-207.5s207.5,93.084,207.5,207.5V306.235z"/>
	<rect id="XMLID_92_" x="157.47" y="139.985" width="30" height="30"/>
	<rect id="XMLID_93_" x="117.47" y="179.985" width="30" height="30"/>
</g>
<g>
</g>
<g>
</g>
<g>
</g>
<g>
</g>
<g>
</g>
<g>
</g>
<g>
</g>
<g>
</g>
<g>
</g>
<g>
</g>
<g>
</g>
<g>
</g>
<g>
</g>
<g>
</g>
<g>
</g>
</svg>
